<svg xmlns="http://www.w3.org/2000/svg" xmlns:xlink="http://www.w3.org/1999/xlink" version="1.1" width="32" height="32" viewBox="0 0 32 32"><g style="mix-blend-mode:passthrough"><g><g style="mix-blend-mode:passthrough"><g><g style="mix-blend-mode:passthrough"></g><g style="mix-blend-mode:passthrough"><path d="M15,27C15,27.5523,15.447715,28,16,28C16.55228,28,17,27.5523,17,27C17,27,15,27,15,27C15,27,15,27,15,27ZM17,5C17,4.447715,16.55228,4,16,4C15.447715,4,15,4.447715,15,5C15,5,17,5,17,5C17,5,17,5,17,5ZM17,27C17,27,17,5,17,5C17,5,15,5,15,5C15,5,15,27,15,27C15,27,17,27,17,27C17,27,17,27,17,27Z" fill-opacity="1"/></g><g style="mix-blend-mode:passthrough"><path d="M6.292892953674317,13.292890953674316C5.902370253674317,13.683420953674316,5.902370253674317,14.316600953674316,6.292892953674317,14.707100953674317C6.683416953674317,15.097600953674316,7.3165809536743165,15.097600953674316,7.7071109536743165,14.707100953674317C7.7071109536743165,14.707100953674317,6.292892953674317,13.292890953674316,6.292892953674317,13.292890953674316C6.292892953674317,13.292890953674316,6.292892953674317,13.292890953674316,6.292892953674317,13.292890953674316ZM16.000000953674316,4.999999953674316C16.000000953674316,4.999999953674316,16.707100953674317,4.292892953674317,16.707100953674317,4.292892953674317C16.316600953674318,3.9023702536743166,15.683420953674316,3.9023702536743166,15.292890953674316,4.292892953674317C15.292890953674316,4.292892953674317,16.000000953674316,4.999999953674316,16.000000953674316,4.999999953674316C16.000000953674316,4.999999953674316,16.000000953674316,4.999999953674316,16.000000953674316,4.999999953674316ZM24.292900953674316,14.707100953674317C24.683400953674315,15.097600953674316,25.316600953674318,15.097600953674316,25.707100953674317,14.707100953674317C26.097600953674316,14.316600953674316,26.097600953674316,13.683420953674316,25.707100953674317,13.292890953674316C25.707100953674317,13.292890953674316,24.292900953674316,14.707100953674317,24.292900953674316,14.707100953674317C24.292900953674316,14.707100953674317,24.292900953674316,14.707100953674317,24.292900953674316,14.707100953674317ZM7.7071109536743165,14.707100953674317C7.7071109536743165,14.707100953674317,16.707100953674317,5.7071109536743165,16.707100953674317,5.7071109536743165C16.707100953674317,5.7071109536743165,15.292890953674316,4.292892953674317,15.292890953674316,4.292892953674317C15.292890953674316,4.292892953674317,6.292892953674317,13.292890953674316,6.292892953674317,13.292890953674316C6.292892953674317,13.292890953674316,7.7071109536743165,14.707100953674317,7.7071109536743165,14.707100953674317C7.7071109536743165,14.707100953674317,7.7071109536743165,14.707100953674317,7.7071109536743165,14.707100953674317ZM15.292890953674316,5.7071109536743165C15.292890953674316,5.7071109536743165,24.292900953674316,14.707100953674317,24.292900953674316,14.707100953674317C24.292900953674316,14.707100953674317,25.707100953674317,13.292890953674316,25.707100953674317,13.292890953674316C25.707100953674317,13.292890953674316,16.707100953674317,4.292892953674317,16.707100953674317,4.292892953674317C16.707100953674317,4.292892953674317,15.292890953674316,5.7071109536743165,15.292890953674316,5.7071109536743165C15.292890953674316,5.7071109536743165,15.292890953674316,5.7071109536743165,15.292890953674316,5.7071109536743165Z" fill-opacity="1"/></g></g></g></g></g></svg>