<svg xmlns="http://www.w3.org/2000/svg" xmlns:xlink="http://www.w3.org/1999/xlink" fill="none" version="1.1" width="48" height="48" viewBox="0 0 48 48"><defs><clipPath id="master_svg0_83_29095"><rect x="0" y="0" width="48" height="48" rx="0"/></clipPath></defs><g style="mix-blend-mode:passthrough" clip-path="url(#master_svg0_83_29095)"><g style="mix-blend-mode:passthrough"><g style="mix-blend-mode:passthrough"><path d="M41.73864375,29.0187046875Q32.50004375,19.030904687499998,27.80114375,14.1673046875Q25.46914375,11.7535746875,24.27304375,10.6200446875Q23.71204375,10.088304687499999,23.43874375,9.8723046875Q23.39284375,9.836054687499999,23.36634375,9.8176046875Q23.37714375,9.8251046875,23.41134375,9.8432446875Q23.58834375,9.9369846875,23.80944375,9.9712246875Q24.12234375,10.0196746875,24.43064375,9.930784687500001Q24.94144375,9.7834846875,25.24064375,9.3431806875L24.35304375,10.6494346875L23.09424375,9.6957546875Q23.73694375,10.1826546875,24.42124375,9.9006446875L24.41184375,9.9171946875Q24.13184375,10.1090346875,23.57444375,10.597224687499999Q22.36054375,11.6604146875,20.06094375,13.9402846875Q15.41264375,18.5487046875,6.4287737499999995,28.0317046875L4.2509137500000005,25.9685046875Q13.267183750000001,16.4512746875,17.94884375,11.8098446875Q20.31424375,9.4647136875,21.59784375,8.3404346875Q22.28924375,7.7348926875,22.71624375,7.4423746875Q23.96154375,6.5891246875,24.90584375,7.3044946875L24.00004375,8.5001258875L22.75934375,7.6570706875Q23.30294375,6.8570346875,24.26854375,7.0065546874999995Q24.54634375,7.0495746875,24.81544375,7.1921346875Q25.02844375,7.3049046875000005,25.29874375,7.5185236875Q25.67784375,7.8181296875,26.33674375,8.4426097875Q27.58074375,9.6215846875,29.95864375,12.0828246875Q34.68024375,16.9698346875,43.94104375,26.9816046875L41.73864375,29.0187046875Z" fill="currentColor" fill-opacity="1"/></g><g style="mix-blend-mode:passthrough"><path d="M32.97144375,17.6268921875Q37.46934375,13.6071051875,38.00014375,13.6072991875Q38.31224375,13.6074121875,38.83774375,14.2092521875Q39.22374375,14.6511531875,39.90014375,15.5243221875Q41.23994375,17.2538021875,43.74454375,20.7064021875L42.93514375,21.2935921875Q40.43984375,17.8538021875,39.10964375,16.1367521875Q38.45114375,15.286762187499999,38.08454375,14.8670261875Q37.91314375,14.6707721875,37.81644375,14.5803921875Q37.78664375,14.5525781875,37.77874375,14.5471681875Q37.86674375,14.6072511875,37.99984375,14.6072991875Q38.07754375,14.6073271875,38.13214375,14.5848591875Q38.12614375,14.5873311875,38.10244375,14.6010041875Q38.01954375,14.6489411875,37.87234375,14.7555031875Q37.54964375,14.9891701875,36.97534375,15.4652721875Q35.80854375,16.4325121875,33.63784375,18.3725121875L32.97144375,17.6268921875ZM3.97988175,20.152672187500002Q6.39593375,17.6465521875,7.692103749999999,16.3906121875Q9.12757375,14.9996941875,9.500003750000001,14.9996941875Q9.86939375,14.9996941875,10.88910375,15.9673321875Q11.77340375,16.8064821875,13.36227375,18.4763721875L12.63781375,19.1656821875Q11.066543750000001,17.5142921875,10.20076375,16.6927221875Q9.77917375,16.2926621875,9.53513375,16.0987321875Q9.43025375,16.0154021875,9.371903750000001,15.9804121875L9.36692375,15.9765521875Q9.42445375,15.999692187499999,9.500003750000001,15.999692187499999Q9.597663749999999,15.999692187499999,9.66510375,15.9657021875Q9.65768375,15.9694421875,9.63025375,15.9884921875Q9.53852375,16.0521921875,9.37523375,16.1920021875Q9.021933749999999,16.4944921875,8.38797375,17.1087721875Q7.10402375,18.3528821875,4.69980575,20.8467221875L3.97988175,20.152672187500002Z" fill="currentColor" fill-opacity="1"/></g><g style="mix-blend-mode:passthrough"><path d="M3.83984375,33.726L3.83984375,14.274C3.83984375,12.864,4.58226275,11.5581,5.79392375,10.8369L21.95404375,1.2178C23.21484375,0.467373,24.78524375,0.467373,26.04594375,1.2178L42.20604375,10.8369C43.41774375,11.5581,44.16014375,12.864,44.16014375,14.274L44.16014375,33.726C44.16014375,35.136,43.41774375,36.4419,42.20604375,37.1631L26.04594375,46.7822C24.78524375,47.5326,23.21484375,47.5326,21.95404375,46.7822L5.79392375,37.1631C4.58226275,36.4419,3.83984375,35.136,3.83984375,33.726ZM6.83984375,33.726L6.83984375,14.274Q6.83984375,13.7055,7.328363749999999,13.4148L23.48854375,3.79569Q24.00004375,3.49124,24.51144375,3.79569L40.67164375,13.4148Q41.16014375,13.7055,41.16014375,14.274L41.16014375,33.726Q41.16014375,34.2945,40.67164375,34.5852L24.51144375,44.2043Q24.00004375,44.5088,23.48854375,44.2043L7.328363749999999,34.5852Q6.83984375,34.2945,6.83984375,33.726Z" fill-rule="evenodd" fill="currentColor" fill-opacity="1"/></g><g style="mix-blend-mode:passthrough"><path d="M34.33984375,17L37.33984375,20L36.83984375,18.5L37.83984375,18L37.33984375,17L38.33984375,14L34.33984375,17ZM4.83984375,19.5L4.83984375,27L5.33984375,35.5L24.33984375,45L16.50004375,31L20.50004375,25L18.50004375,22.5L24.83984375,8.5L14.33984375,17.03613L9.33984375,21.5L7.83984375,20L8.83984375,19L8.33984375,18L9.83984375,15.5L4.83984375,19.5Z" fill="currentColor" fill-opacity="1"/></g></g></g></svg>